<svg xmlns="http://www.w3.org/2000/svg" xmlns:xlink="http://www.w3.org/1999/xlink" width="500" zoomAndPan="magnify" viewBox="0 0 375 125.999998" height="168" preserveAspectRatio="xMidYMid meet" version="1.0"><defs><g/><clipPath id="4ab2ac6e56"><path d="M 1 11 L 101 11 L 101 108.984375 L 1 108.984375 Z M 1 11 " clip-rule="nonzero"/></clipPath><clipPath id="d3276af335"><path d="M 60.304688 11.539062 C 55.378906 11.539062 51.472656 15.8125 51.324219 20.984375 C 51.316406 21.039062 51.3125 21.09375 51.3125 21.148438 L 51.3125 21.203125 C 51.3125 21.230469 51.308594 21.257812 51.308594 21.285156 C 51.308594 21.328125 51.308594 21.371094 51.3125 21.414062 L 51.300781 27.644531 C 51.300781 27.738281 51.308594 27.832031 51.328125 27.921875 C 51.328125 27.925781 51.328125 27.925781 51.328125 27.929688 C 51.421875 30.792969 52.449219 33.417969 54.113281 35.4375 C 52.367188 37.527344 51.316406 40.277344 51.285156 43.277344 C 51.273438 43.335938 51.269531 43.398438 51.273438 43.460938 L 51.230469 65.703125 C 51.230469 65.703125 51.230469 65.707031 51.230469 65.710938 C 51.230469 65.714844 51.230469 65.714844 51.230469 65.71875 L 51.230469 65.886719 C 51.230469 65.960938 51.234375 66.035156 51.246094 66.109375 C 51.246094 66.109375 51.246094 66.113281 51.246094 66.117188 C 51.308594 69.421875 52.59375 72.421875 54.691406 74.554688 C 52.523438 76.75 51.203125 79.875 51.203125 83.273438 L 51.203125 83.277344 C 51.199219 83.320312 51.199219 83.359375 51.199219 83.402344 L 51.167969 99.21875 C 51.167969 99.226562 51.167969 99.230469 51.167969 99.234375 C 51.167969 99.238281 51.167969 99.238281 51.167969 99.242188 L 51.167969 99.402344 C 51.167969 99.480469 51.171875 99.554688 51.1875 99.632812 C 51.378906 104.761719 55.269531 108.984375 60.160156 108.984375 C 63.230469 108.984375 65.898438 107.320312 67.519531 104.820312 C 68.023438 105.0625 68.546875 105.273438 69.097656 105.429688 C 74.636719 106.96875 80.253906 103.246094 81.617188 97.339844 C 81.671875 97.097656 81.707031 96.859375 81.75 96.621094 C 86.703125 98.492188 92.398438 96.347656 95.128906 91.304688 C 97.304688 87.296875 97.132812 82.511719 95.050781 78.777344 C 96.480469 77.496094 97.703125 75.898438 98.617188 74.019531 C 102.046875 66.964844 100.070312 58.34375 94.167969 53.847656 C 94.890625 52.253906 95.316406 50.476562 95.316406 48.589844 C 95.316406 42.777344 91.425781 37.855469 86.238281 36.882812 C 88.40625 31.289062 86.859375 24.644531 82.125 20.910156 C 79.378906 18.746094 76.050781 18.019531 72.921875 18.578125 C 71.628906 18.8125 70.375 19.277344 69.203125 19.9375 C 68.597656 15.25 64.890625 11.539062 60.304688 11.539062 Z M 49.25 11.554688 C 46.160156 11.582031 43.101562 11.898438 40.070312 12.507812 L 40.078125 12.511719 L 40.078125 12.515625 C 40.117188 12.597656 40.15625 12.679688 40.195312 12.761719 L 40.21875 12.824219 C 40.460938 13.402344 40.640625 13.996094 40.765625 14.605469 C 40.886719 15.21875 40.949219 15.835938 40.953125 16.460938 C 40.953125 17.085938 40.894531 17.707031 40.773438 18.316406 C 40.652344 18.929688 40.476562 19.527344 40.238281 20.105469 C 40 20.679688 39.710938 21.230469 39.367188 21.75 C 39.019531 22.269531 38.628906 22.753906 38.1875 23.195312 C 37.75 23.636719 37.269531 24.035156 36.753906 24.382812 C 36.234375 24.730469 35.691406 25.027344 35.113281 25.269531 C 34.539062 25.507812 33.945312 25.691406 33.335938 25.816406 C 32.722656 25.941406 32.105469 26.003906 31.480469 26.007812 C 30.859375 26.007812 30.238281 25.949219 29.628906 25.832031 C 29.015625 25.714844 28.421875 25.535156 27.84375 25.300781 C 27.265625 25.0625 26.71875 24.773438 26.195312 24.429688 C 25.675781 24.085938 25.195312 23.691406 24.75 23.253906 C 24.308594 22.8125 23.910156 22.335938 23.5625 21.820312 C 23.210938 21.300781 22.917969 20.753906 22.675781 20.179688 C 22.632812 20.070312 22.589844 19.957031 22.550781 19.84375 C 17.265625 23.417969 12.851562 27.855469 9.308594 33.164062 C 10.328125 33.667969 11.230469 34.332031 12.015625 35.15625 C 12.800781 35.984375 13.414062 36.921875 13.863281 37.96875 L 13.890625 38.035156 C 14.128906 38.609375 14.3125 39.203125 14.433594 39.816406 C 14.558594 40.429688 14.621094 41.046875 14.621094 41.671875 C 14.621094 42.296875 14.5625 42.914062 14.445312 43.527344 C 14.324219 44.140625 14.144531 44.734375 13.90625 45.3125 C 13.671875 45.890625 13.378906 46.4375 13.035156 46.957031 C 12.691406 47.480469 12.296875 47.960938 11.859375 48.402344 C 11.417969 48.847656 10.941406 49.242188 10.421875 49.589844 C 9.90625 49.941406 9.359375 50.234375 8.785156 50.476562 C 7.710938 50.925781 6.59375 51.167969 5.429688 51.207031 C 4.265625 51.242188 3.132812 51.074219 2.035156 50.695312 C 0.742188 57.105469 0.738281 63.515625 2.019531 69.925781 C 2.121094 69.875 2.222656 69.828125 2.324219 69.785156 C 2.898438 69.539062 3.488281 69.355469 4.101562 69.230469 C 4.710938 69.101562 5.328125 69.035156 5.953125 69.03125 C 6.574219 69.027344 7.195312 69.082031 7.808594 69.199219 C 8.417969 69.316406 9.015625 69.492188 9.59375 69.726562 C 10.171875 69.960938 10.722656 70.25 11.242188 70.589844 C 11.765625 70.933594 12.246094 71.324219 12.691406 71.761719 C 13.136719 72.199219 13.535156 72.675781 13.886719 73.191406 C 14.238281 73.707031 14.535156 74.25 14.78125 74.824219 L 14.808594 74.890625 C 15.046875 75.46875 15.230469 76.0625 15.351562 76.675781 C 15.476562 77.285156 15.539062 77.90625 15.539062 78.527344 C 15.539062 79.152344 15.480469 79.769531 15.359375 80.382812 C 15.242188 80.996094 15.0625 81.589844 14.824219 82.167969 C 14.589844 82.746094 14.296875 83.292969 13.953125 83.816406 C 13.609375 84.335938 13.214844 84.816406 12.777344 85.257812 C 12.335938 85.703125 11.859375 86.097656 11.339844 86.445312 C 10.824219 86.796875 10.277344 87.089844 9.703125 87.332031 C 9.578125 87.378906 9.457031 87.425781 9.328125 87.464844 C 12.953125 92.855469 17.472656 97.339844 22.886719 100.921875 C 23.371094 99.800781 24.050781 98.8125 24.917969 97.953125 C 25.785156 97.089844 26.777344 96.421875 27.902344 95.945312 C 28.476562 95.703125 29.070312 95.519531 29.679688 95.390625 C 30.292969 95.265625 30.910156 95.199219 31.535156 95.195312 C 32.15625 95.191406 32.777344 95.246094 33.386719 95.363281 C 34 95.480469 34.597656 95.65625 35.175781 95.886719 C 35.753906 96.121094 36.304688 96.410156 36.824219 96.753906 C 37.347656 97.09375 37.832031 97.484375 38.273438 97.921875 C 38.71875 98.359375 39.117188 98.835938 39.46875 99.351562 C 39.820312 99.871094 40.117188 100.414062 40.363281 100.988281 L 40.390625 101.054688 C 40.859375 102.183594 41.097656 103.355469 41.113281 104.574219 C 41.132812 105.796875 40.921875 106.976562 40.484375 108.113281 C 43.378906 108.664062 46.300781 108.945312 49.25 108.964844 L 49.25 80.210938 C 48.296875 80.183594 47.351562 80.09375 46.410156 79.933594 C 45.46875 79.773438 44.542969 79.546875 43.636719 79.253906 C 42.730469 78.960938 41.847656 78.605469 40.988281 78.1875 C 40.132812 77.769531 39.308594 77.289062 38.519531 76.75 C 37.730469 76.214844 36.984375 75.625 36.28125 74.976562 C 35.578125 74.332031 34.925781 73.640625 34.320312 72.902344 C 33.714844 72.164062 33.167969 71.386719 32.671875 70.570312 C 32.179688 69.75 31.75 68.902344 31.378906 68.023438 C 31.125 67.421875 30.902344 66.808594 30.707031 66.183594 C 30.515625 65.5625 30.351562 64.929688 30.222656 64.289062 C 30.089844 63.652344 29.992188 63.007812 29.921875 62.355469 C 29.855469 61.707031 29.820312 61.054688 29.816406 60.402344 C 29.8125 59.75 29.839844 59.097656 29.898438 58.449219 C 29.957031 57.796875 30.050781 57.152344 30.171875 56.511719 C 30.296875 55.871094 30.449219 55.234375 30.636719 54.609375 C 30.820312 53.984375 31.035156 53.367188 31.28125 52.761719 C 31.527344 52.15625 31.800781 51.566406 32.105469 50.988281 C 32.410156 50.410156 32.738281 49.847656 33.097656 49.304688 C 33.457031 48.757812 33.84375 48.230469 34.253906 47.722656 C 34.664062 47.214844 35.097656 46.730469 35.554688 46.265625 C 36.011719 45.800781 36.492188 45.359375 36.992188 44.941406 C 37.496094 44.523438 38.015625 44.128906 38.554688 43.761719 C 39.09375 43.394531 39.652344 43.054688 40.226562 42.742188 C 40.796875 42.433594 41.382812 42.148438 41.984375 41.894531 C 44.308594 40.917969 46.730469 40.398438 49.25 40.34375 Z M 60.304688 14.105469 C 63.800781 14.105469 66.734375 17.246094 66.734375 21.285156 C 66.730469 21.433594 66.753906 21.578125 66.804688 21.71875 C 66.109375 22.382812 65.464844 23.128906 64.910156 23.976562 C 64.816406 24.121094 64.75 24.277344 64.714844 24.445312 C 64.683594 24.613281 64.683594 24.78125 64.71875 24.949219 C 64.75 25.117188 64.816406 25.273438 64.914062 25.414062 C 65.007812 25.558594 65.128906 25.675781 65.273438 25.769531 C 65.417969 25.863281 65.574219 25.925781 65.742188 25.957031 C 65.910156 25.988281 66.078125 25.988281 66.246094 25.949219 C 66.414062 25.914062 66.566406 25.847656 66.707031 25.75 C 66.847656 25.652344 66.964844 25.53125 67.058594 25.386719 C 70.234375 20.53125 76.164062 19.480469 80.535156 22.925781 C 84.910156 26.375 85.949219 33.207031 82.773438 38.058594 C 80.96875 40.816406 78.257812 42.316406 75.464844 42.492188 C 75.183594 42.511719 74.902344 42.5 74.621094 42.488281 C 74.558594 39.503906 73.398438 36.558594 71.164062 34.40625 C 72.425781 32.488281 73.179688 30.15625 73.203125 27.644531 C 73.207031 27.472656 73.175781 27.308594 73.113281 27.148438 C 73.050781 26.992188 72.957031 26.851562 72.839844 26.726562 C 72.71875 26.605469 72.582031 26.507812 72.425781 26.441406 C 72.265625 26.375 72.101562 26.339844 71.933594 26.339844 C 71.761719 26.335938 71.597656 26.367188 71.4375 26.433594 C 71.277344 26.496094 71.140625 26.589844 71.015625 26.707031 C 70.894531 26.828125 70.800781 26.96875 70.734375 27.125 C 70.667969 27.285156 70.636719 27.449219 70.636719 27.621094 C 70.585938 32.84375 66.746094 36.898438 62.171875 36.84375 C 57.59375 36.792969 53.828125 32.648438 53.875 27.425781 C 53.878906 27.382812 53.875 27.339844 53.871094 27.296875 C 53.871094 27.289062 53.871094 27.277344 53.867188 27.269531 L 53.878906 21.832031 L 53.882812 21.199219 C 53.921875 17.199219 56.832031 14.105469 60.304688 14.105469 Z M 69.515625 36.394531 C 72.609375 39.519531 72.914062 44.914062 70.125 48.433594 C 69.90625 48.714844 69.671875 48.972656 69.429688 49.210938 C 69.316406 49.320312 69.199219 49.40625 69.082031 49.507812 C 68.996094 49.378906 68.914062 49.246094 68.820312 49.125 C 67.140625 46.929688 64.6875 45.421875 61.839844 45.144531 C 61.796875 45.140625 61.753906 45.136719 61.710938 45.136719 C 61.546875 45.136719 61.382812 45.164062 61.230469 45.222656 C 61.074219 45.285156 60.933594 45.371094 60.8125 45.484375 C 60.691406 45.597656 60.597656 45.730469 60.527344 45.882812 C 60.457031 46.035156 60.417969 46.195312 60.410156 46.359375 C 60.402344 46.527344 60.425781 46.691406 60.480469 46.847656 C 60.535156 47.003906 60.617188 47.144531 60.726562 47.269531 C 60.839844 47.394531 60.96875 47.496094 61.117188 47.570312 C 61.265625 47.644531 61.421875 47.691406 61.589844 47.703125 C 65.78125 48.109375 68.984375 52.226562 68.597656 57.023438 C 68.535156 57.773438 68.390625 58.492188 68.171875 59.164062 C 68.117188 59.328125 68.09375 59.496094 68.105469 59.667969 C 68.117188 59.839844 68.160156 60.003906 68.238281 60.15625 C 68.316406 60.3125 68.417969 60.445312 68.550781 60.558594 C 68.679688 60.671875 68.828125 60.753906 68.992188 60.804688 C 69.15625 60.859375 69.324219 60.878906 69.496094 60.863281 C 69.667969 60.847656 69.832031 60.800781 69.984375 60.722656 C 70.136719 60.640625 70.265625 60.535156 70.375 60.402344 C 70.488281 60.265625 70.566406 60.117188 70.617188 59.953125 C 70.894531 59.089844 71.078125 58.179688 71.15625 57.230469 C 71.308594 55.320312 71.003906 53.464844 70.339844 51.808594 C 70.988281 51.300781 71.59375 50.710938 72.136719 50.027344 C 73.308594 48.550781 74.0625 46.835938 74.410156 45.058594 C 77.402344 45.191406 80.386719 44.128906 82.738281 42.019531 C 82.941406 41.839844 83.136719 41.648438 83.332031 41.449219 C 83.910156 40.859375 84.445312 40.195312 84.921875 39.46875 C 84.957031 39.414062 84.984375 39.355469 85.019531 39.300781 C 89.300781 39.667969 92.75 43.613281 92.75 48.589844 C 92.75 49.929688 92.496094 51.203125 92.039062 52.347656 C 92.019531 52.394531 91.996094 52.433594 91.980469 52.476562 C 90.4375 51.695312 88.824219 51.214844 87.203125 51.054688 C 85.632812 50.898438 84.0625 51.039062 82.554688 51.429688 C 82.066406 50.0625 81.144531 48.863281 79.84375 48.082031 C 79.617188 47.941406 79.375 47.878906 79.109375 47.890625 C 78.824219 47.902344 78.574219 48 78.355469 48.179688 C 78.136719 48.363281 77.992188 48.589844 77.921875 48.867188 C 77.855469 49.140625 77.878906 49.410156 77.988281 49.671875 C 78.097656 49.9375 78.277344 50.136719 78.523438 50.28125 C 80.214844 51.300781 80.90625 53.777344 79.929688 55.730469 C 79.777344 56.035156 79.597656 56.308594 79.398438 56.542969 C 79.28125 56.671875 79.195312 56.816406 79.136719 56.980469 C 79.078125 57.144531 79.054688 57.3125 79.066406 57.488281 C 79.078125 57.660156 79.121094 57.824219 79.199219 57.980469 C 79.277344 58.136719 79.382812 58.269531 79.515625 58.382812 C 79.648438 58.496094 79.796875 58.578125 79.960938 58.628906 C 80.125 58.683594 80.292969 58.699219 80.46875 58.683594 C 80.640625 58.667969 80.804688 58.617188 80.957031 58.535156 C 81.109375 58.453125 81.238281 58.347656 81.347656 58.210938 C 81.6875 57.8125 81.980469 57.371094 82.226562 56.878906 C 82.6875 55.957031 82.917969 54.964844 82.949219 53.984375 C 85.703125 53.195312 88.695312 53.480469 91.421875 55.078125 C 97.183594 58.457031 99.433594 66.46875 96.308594 72.894531 C 94.757812 76.078125 92.222656 78.234375 89.375 79.207031 C 88.09375 79.644531 86.820312 79.527344 85.457031 78.8125 C 84.09375 78.097656 82.664062 76.742188 81.375 74.726562 C 81.367188 74.714844 81.359375 74.707031 81.355469 74.695312 C 83.152344 73.269531 84.355469 71.015625 84.460938 68.46875 C 84.46875 68.296875 84.445312 68.128906 84.386719 67.964844 C 84.328125 67.800781 84.238281 67.65625 84.121094 67.527344 C 84.003906 67.398438 83.867188 67.300781 83.710938 67.230469 C 83.550781 67.15625 83.386719 67.117188 83.214844 67.113281 C 83.042969 67.109375 82.878906 67.136719 82.71875 67.199219 C 82.5625 67.257812 82.417969 67.347656 82.296875 67.464844 C 82.171875 67.582031 82.078125 67.71875 82.007812 67.875 C 81.9375 68.03125 81.898438 68.191406 81.894531 68.363281 C 81.765625 71.527344 79.390625 73.832031 76.691406 73.699219 C 76.265625 73.675781 75.863281 73.597656 75.476562 73.46875 C 75.316406 73.414062 75.148438 73.390625 74.980469 73.402344 C 74.808594 73.414062 74.648438 73.457031 74.496094 73.535156 C 74.34375 73.609375 74.210938 73.710938 74.097656 73.839844 C 73.988281 73.96875 73.902344 74.113281 73.847656 74.277344 C 73.796875 74.4375 73.773438 74.601562 73.785156 74.773438 C 73.796875 74.941406 73.839844 75.105469 73.917969 75.257812 C 73.992188 75.410156 74.09375 75.542969 74.222656 75.65625 C 74.351562 75.765625 74.496094 75.847656 74.660156 75.902344 C 75.261719 76.105469 75.902344 76.230469 76.5625 76.261719 C 77.449219 76.308594 78.304688 76.175781 79.105469 75.910156 C 79.132812 75.980469 79.171875 76.046875 79.210938 76.109375 C 80.679688 78.40625 82.382812 80.105469 84.269531 81.089844 C 86.152344 82.074219 88.25 82.304688 90.203125 81.636719 C 91.160156 81.3125 92.078125 80.867188 92.957031 80.328125 C 94.453125 83.25 94.554688 86.980469 92.875 90.078125 C 90.546875 94.375 85.859375 95.882812 81.902344 93.886719 C 81.621094 89.253906 78.6875 85.105469 74.277344 83.84375 C 74.625 81.710938 74.191406 79.4375 72.90625 77.554688 C 72.644531 77.164062 72.28125 76.972656 71.8125 76.980469 C 71.628906 76.984375 71.453125 77.027344 71.289062 77.105469 C 71.121094 77.183594 70.976562 77.292969 70.859375 77.433594 C 70.738281 77.574219 70.652344 77.734375 70.601562 77.910156 C 70.550781 78.089844 70.539062 78.269531 70.566406 78.449219 C 70.570312 78.492188 70.578125 78.535156 70.589844 78.578125 C 70.628906 78.734375 70.691406 78.875 70.785156 79.007812 C 72.484375 81.492188 72.003906 85.097656 69.78125 86.929688 C 69.433594 87.21875 69.070312 87.445312 68.695312 87.613281 C 68.53125 87.679688 68.390625 87.773438 68.265625 87.898438 C 68.144531 88.023438 68.046875 88.164062 67.984375 88.328125 C 67.917969 88.488281 67.890625 88.660156 67.894531 88.832031 C 67.898438 89.007812 67.933594 89.175781 68.007812 89.335938 C 68.078125 89.492188 68.179688 89.632812 68.308594 89.75 C 68.4375 89.867188 68.582031 89.957031 68.75 90.015625 C 68.914062 90.074219 69.082031 90.097656 69.257812 90.085938 C 69.429688 90.074219 69.597656 90.03125 69.753906 89.953125 C 70.335938 89.6875 70.894531 89.339844 71.414062 88.914062 C 72.304688 88.179688 72.996094 87.277344 73.492188 86.285156 C 73.5 86.289062 73.507812 86.289062 73.515625 86.292969 C 77.605469 87.429688 80.191406 92.097656 79.113281 96.757812 C 78.304688 100.253906 75.761719 102.628906 72.816406 103.121094 C 72.570312 103.160156 72.324219 103.191406 72.074219 103.203125 C 71.570312 103.230469 71.0625 103.207031 70.550781 103.121094 C 70.296875 103.078125 70.039062 103.023438 69.785156 102.953125 C 69.378906 102.839844 68.996094 102.683594 68.625 102.503906 C 68.964844 101.476562 69.15625 100.378906 69.15625 99.234375 C 69.160156 99.066406 69.128906 98.902344 69.066406 98.746094 C 69.007812 98.589844 68.917969 98.453125 68.800781 98.332031 C 68.6875 98.210938 68.550781 98.113281 68.398438 98.046875 C 68.246094 97.976562 68.085938 97.941406 67.917969 97.933594 C 67.75 97.929688 67.589844 97.953125 67.429688 98.011719 C 67.273438 98.070312 67.132812 98.15625 67.007812 98.269531 C 66.886719 98.382812 66.789062 98.511719 66.714844 98.664062 C 66.644531 98.816406 66.601562 98.976562 66.59375 99.144531 C 66.589844 99.171875 66.589844 99.203125 66.589844 99.234375 C 66.589844 103.023438 64.011719 106.019531 60.808594 106.378906 C 60.59375 106.402344 60.378906 106.414062 60.160156 106.414062 C 56.664062 106.414062 53.738281 103.277344 53.734375 99.238281 C 53.734375 99.238281 53.734375 99.234375 53.734375 99.234375 L 53.761719 83.871094 C 53.769531 83.820312 53.769531 83.765625 53.765625 83.714844 C 53.542969 78.578125 57.0625 74.335938 61.535156 73.980469 C 62.023438 75.308594 62.839844 76.519531 63.976562 77.457031 C 64.496094 77.886719 65.054688 78.234375 65.636719 78.496094 C 65.789062 78.570312 65.953125 78.613281 66.125 78.621094 C 66.296875 78.625 66.464844 78.601562 66.625 78.542969 C 66.789062 78.480469 66.929688 78.394531 67.058594 78.277344 C 67.183594 78.160156 67.28125 78.023438 67.351562 77.867188 C 67.421875 77.707031 67.460938 77.542969 67.464844 77.371094 C 67.472656 77.199219 67.441406 77.035156 67.378906 76.875 C 67.320312 76.714844 67.226562 76.570312 67.109375 76.445312 C 66.992188 76.320312 66.851562 76.226562 66.695312 76.15625 C 66.320312 75.988281 65.953125 75.761719 65.605469 75.476562 C 63.382812 73.640625 62.902344 70.035156 64.601562 67.550781 C 64.742188 67.351562 64.820312 67.132812 64.835938 66.890625 C 64.851562 66.652344 64.800781 66.421875 64.6875 66.210938 C 64.574219 65.996094 64.414062 65.828125 64.207031 65.703125 C 64 65.582031 63.773438 65.519531 63.535156 65.523438 C 63.082031 65.53125 62.734375 65.722656 62.484375 66.097656 C 61.382812 67.710938 60.90625 69.605469 61.007812 71.453125 C 59.449219 71.628906 58.003906 72.148438 56.722656 72.941406 C 54.917969 71.214844 53.757812 68.640625 53.796875 65.742188 L 53.816406 54.753906 L 53.835938 43.613281 C 53.839844 43.582031 53.839844 43.546875 53.839844 43.511719 C 53.816406 41.09375 54.625 38.894531 55.949219 37.234375 C 57.695312 38.582031 59.820312 39.386719 62.140625 39.414062 C 64.984375 39.445312 67.5625 38.289062 69.515625 36.398438 Z M 69.515625 36.394531 " clip-rule="nonzero"/></clipPath><linearGradient x1="-0.0033652" gradientTransform="matrix(99.229177, 0, 0, 97.445883, 1.070646, 11.537722)" y1="0" x2="1.017619" gradientUnits="userSpaceOnUse" y2="0" id="a4090fc1c4"><stop stop-opacity="1" stop-color="rgb(93.699646%, 25.498962%, 21.199036%)" offset="0"/><stop stop-opacity="1" stop-color="rgb(93.710327%, 25.59967%, 21.208191%)" offset="0.0078125"/><stop stop-opacity="1" stop-color="rgb(93.739319%, 25.872803%, 21.232605%)" offset="0.015625"/><stop stop-opacity="1" stop-color="rgb(93.777466%, 26.219177%, 21.263123%)" offset="0.0234375"/><stop stop-opacity="1" stop-color="rgb(93.814087%, 26.567078%, 21.295166%)" offset="0.03125"/><stop stop-opacity="1" stop-color="rgb(93.852234%, 26.913452%, 21.325684%)" offset="0.0390625"/><stop stop-opacity="1" stop-color="rgb(93.888855%, 27.261353%, 21.356201%)" offset="0.046875"/><stop stop-opacity="1" stop-color="rgb(93.927002%, 27.607727%, 21.388245%)" offset="0.0546875"/><stop stop-opacity="1" stop-color="rgb(93.963623%, 27.954102%, 21.418762%)" offset="0.0625"/><stop stop-opacity="1" stop-color="rgb(94.00177%, 28.302002%, 21.450806%)" offset="0.0703125"/><stop stop-opacity="1" stop-color="rgb(94.038391%, 28.648376%, 21.481323%)" offset="0.078125"/><stop stop-opacity="1" stop-color="rgb(94.076538%, 28.996277%, 21.511841%)" offset="0.0859375"/><stop stop-opacity="1" stop-color="rgb(94.114685%, 29.342651%, 21.543884%)" offset="0.09375"/><stop stop-opacity="1" stop-color="rgb(94.151306%, 29.689026%, 21.574402%)" offset="0.101562"/><stop stop-opacity="1" stop-color="rgb(94.189453%, 30.036926%, 21.606445%)" offset="0.109375"/><stop stop-opacity="1" stop-color="rgb(94.226074%, 30.383301%, 21.636963%)" offset="0.117187"/><stop stop-opacity="1" stop-color="rgb(94.264221%, 30.731201%, 21.66748%)" offset="0.125"/><stop stop-opacity="1" stop-color="rgb(94.300842%, 31.077576%, 21.699524%)" offset="0.132812"/><stop stop-opacity="1" stop-color="rgb(94.338989%, 31.42395%, 21.730042%)" offset="0.140625"/><stop stop-opacity="1" stop-color="rgb(94.377136%, 31.771851%, 21.760559%)" offset="0.148437"/><stop stop-opacity="1" stop-color="rgb(94.413757%, 32.118225%, 21.792603%)" offset="0.15625"/><stop stop-opacity="1" stop-color="rgb(94.451904%, 32.466125%, 21.82312%)" offset="0.164062"/><stop stop-opacity="1" stop-color="rgb(94.488525%, 32.8125%, 21.855164%)" offset="0.171875"/><stop stop-opacity="1" stop-color="rgb(94.526672%, 33.158875%, 21.885681%)" offset="0.179687"/><stop stop-opacity="1" stop-color="rgb(94.563293%, 33.506775%, 21.916199%)" offset="0.1875"/><stop stop-opacity="1" stop-color="rgb(94.60144%, 33.853149%, 21.948242%)" offset="0.195312"/><stop stop-opacity="1" stop-color="rgb(94.639587%, 34.199524%, 21.97876%)" offset="0.203125"/><stop stop-opacity="1" stop-color="rgb(94.676208%, 34.547424%, 22.010803%)" offset="0.210937"/><stop stop-opacity="1" stop-color="rgb(94.714355%, 34.893799%, 22.041321%)" offset="0.21875"/><stop stop-opacity="1" stop-color="rgb(94.750977%, 35.241699%, 22.071838%)" offset="0.226562"/><stop stop-opacity="1" stop-color="rgb(94.789124%, 35.588074%, 22.103882%)" offset="0.234375"/><stop stop-opacity="1" stop-color="rgb(94.825745%, 35.934448%, 22.134399%)" offset="0.242187"/><stop stop-opacity="1" stop-color="rgb(94.863892%, 36.282349%, 22.166443%)" offset="0.25"/><stop stop-opacity="1" stop-color="rgb(94.902039%, 36.628723%, 22.19696%)" offset="0.257812"/><stop stop-opacity="1" stop-color="rgb(94.93866%, 36.976624%, 22.227478%)" offset="0.265625"/><stop stop-opacity="1" stop-color="rgb(94.976807%, 37.322998%, 22.259521%)" offset="0.273438"/><stop stop-opacity="1" stop-color="rgb(95.013428%, 37.669373%, 22.290039%)" offset="0.28125"/><stop stop-opacity="1" stop-color="rgb(95.051575%, 38.017273%, 22.320557%)" offset="0.289062"/><stop stop-opacity="1" stop-color="rgb(95.088196%, 38.363647%, 22.3526%)" offset="0.296875"/><stop stop-opacity="1" stop-color="rgb(95.126343%, 38.711548%, 22.383118%)" offset="0.304688"/><stop stop-opacity="1" stop-color="rgb(95.16449%, 39.057922%, 22.415161%)" offset="0.3125"/><stop stop-opacity="1" stop-color="rgb(95.201111%, 39.404297%, 22.445679%)" offset="0.320312"/><stop stop-opacity="1" stop-color="rgb(95.239258%, 39.752197%, 22.476196%)" offset="0.328125"/><stop stop-opacity="1" stop-color="rgb(95.275879%, 40.098572%, 22.50824%)" offset="0.335938"/><stop stop-opacity="1" stop-color="rgb(95.314026%, 40.446472%, 22.538757%)" offset="0.34375"/><stop stop-opacity="1" stop-color="rgb(95.350647%, 40.792847%, 22.570801%)" offset="0.351562"/><stop stop-opacity="1" stop-color="rgb(95.388794%, 41.139221%, 22.601318%)" offset="0.359375"/><stop stop-opacity="1" stop-color="rgb(95.426941%, 41.487122%, 22.631836%)" offset="0.367188"/><stop stop-opacity="1" stop-color="rgb(95.463562%, 41.833496%, 22.663879%)" offset="0.375"/><stop stop-opacity="1" stop-color="rgb(95.501709%, 42.181396%, 22.694397%)" offset="0.382812"/><stop stop-opacity="1" stop-color="rgb(95.53833%, 42.527771%, 22.724915%)" offset="0.390625"/><stop stop-opacity="1" stop-color="rgb(95.576477%, 42.874146%, 22.756958%)" offset="0.398438"/><stop stop-opacity="1" stop-color="rgb(95.613098%, 43.222046%, 22.787476%)" offset="0.40625"/><stop stop-opacity="1" stop-color="rgb(95.651245%, 43.56842%, 22.819519%)" offset="0.414062"/><stop stop-opacity="1" stop-color="rgb(95.689392%, 43.914795%, 22.850037%)" offset="0.421875"/><stop stop-opacity="1" stop-color="rgb(95.726013%, 44.262695%, 22.880554%)" offset="0.429688"/><stop stop-opacity="1" stop-color="rgb(95.76416%, 44.60907%, 22.912598%)" offset="0.4375"/><stop stop-opacity="1" stop-color="rgb(95.800781%, 44.95697%, 22.943115%)" offset="0.445312"/><stop stop-opacity="1" stop-color="rgb(95.838928%, 45.303345%, 22.975159%)" offset="0.453125"/><stop stop-opacity="1" stop-color="rgb(95.875549%, 45.649719%, 23.005676%)" offset="0.460938"/><stop stop-opacity="1" stop-color="rgb(95.913696%, 45.99762%, 23.036194%)" offset="0.46875"/><stop stop-opacity="1" stop-color="rgb(95.951843%, 46.343994%, 23.068237%)" offset="0.476562"/><stop stop-opacity="1" stop-color="rgb(95.988464%, 46.691895%, 23.098755%)" offset="0.484375"/><stop stop-opacity="1" stop-color="rgb(96.026611%, 47.038269%, 23.130798%)" offset="0.492187"/><stop stop-opacity="1" stop-color="rgb(96.063232%, 47.384644%, 23.161316%)" offset="0.5"/><stop stop-opacity="1" stop-color="rgb(96.101379%, 47.732544%, 23.191833%)" offset="0.507812"/><stop stop-opacity="1" stop-color="rgb(96.138%, 48.078918%, 23.223877%)" offset="0.515625"/><stop stop-opacity="1" stop-color="rgb(96.176147%, 48.426819%, 23.254395%)" offset="0.523438"/><stop stop-opacity="1" stop-color="rgb(96.212769%, 48.773193%, 23.284912%)" offset="0.53125"/><stop stop-opacity="1" stop-color="rgb(96.250916%, 49.119568%, 23.316956%)" offset="0.539062"/><stop stop-opacity="1" stop-color="rgb(96.289062%, 49.467468%, 23.347473%)" offset="0.546875"/><stop stop-opacity="1" stop-color="rgb(96.325684%, 49.813843%, 23.379517%)" offset="0.554688"/><stop stop-opacity="1" stop-color="rgb(96.363831%, 50.161743%, 23.410034%)" offset="0.5625"/><stop stop-opacity="1" stop-color="rgb(96.400452%, 50.508118%, 23.440552%)" offset="0.570312"/><stop stop-opacity="1" stop-color="rgb(96.438599%, 50.854492%, 23.472595%)" offset="0.578125"/><stop stop-opacity="1" stop-color="rgb(96.47522%, 51.202393%, 23.503113%)" offset="0.585938"/><stop stop-opacity="1" stop-color="rgb(96.513367%, 51.548767%, 23.535156%)" offset="0.59375"/><stop stop-opacity="1" stop-color="rgb(96.551514%, 51.896667%, 23.565674%)" offset="0.601562"/><stop stop-opacity="1" stop-color="rgb(96.588135%, 52.243042%, 23.596191%)" offset="0.609375"/><stop stop-opacity="1" stop-color="rgb(96.626282%, 52.589417%, 23.628235%)" offset="0.617188"/><stop stop-opacity="1" stop-color="rgb(96.662903%, 52.937317%, 23.658752%)" offset="0.625"/><stop stop-opacity="1" stop-color="rgb(96.70105%, 53.283691%, 23.68927%)" offset="0.632812"/><stop stop-opacity="1" stop-color="rgb(96.737671%, 53.631592%, 23.721313%)" offset="0.640625"/><stop stop-opacity="1" stop-color="rgb(96.775818%, 53.977966%, 23.751831%)" offset="0.648438"/><stop stop-opacity="1" stop-color="rgb(96.813965%, 54.324341%, 23.783875%)" offset="0.65625"/><stop stop-opacity="1" stop-color="rgb(96.850586%, 54.672241%, 23.814392%)" offset="0.664062"/><stop stop-opacity="1" stop-color="rgb(96.888733%, 55.018616%, 23.84491%)" offset="0.671875"/><stop stop-opacity="1" stop-color="rgb(96.925354%, 55.36499%, 23.876953%)" offset="0.679688"/><stop stop-opacity="1" stop-color="rgb(96.963501%, 55.712891%, 23.907471%)" offset="0.6875"/><stop stop-opacity="1" stop-color="rgb(97.000122%, 56.059265%, 23.939514%)" offset="0.695312"/><stop stop-opacity="1" stop-color="rgb(97.038269%, 56.407166%, 23.970032%)" offset="0.703125"/><stop stop-opacity="1" stop-color="rgb(97.076416%, 56.75354%, 24.000549%)" offset="0.710938"/><stop stop-opacity="1" stop-color="rgb(97.113037%, 57.099915%, 24.032593%)" offset="0.71875"/><stop stop-opacity="1" stop-color="rgb(97.151184%, 57.447815%, 24.06311%)" offset="0.726562"/><stop stop-opacity="1" stop-color="rgb(97.187805%, 57.794189%, 24.095154%)" offset="0.734375"/><stop stop-opacity="1" stop-color="rgb(97.225952%, 58.14209%, 24.125671%)" offset="0.742188"/><stop stop-opacity="1" stop-color="rgb(97.262573%, 58.488464%, 24.156189%)" offset="0.75"/><stop stop-opacity="1" stop-color="rgb(97.30072%, 58.834839%, 24.188232%)" offset="0.757812"/><stop stop-opacity="1" stop-color="rgb(97.338867%, 59.182739%, 24.21875%)" offset="0.765625"/><stop stop-opacity="1" stop-color="rgb(97.375488%, 59.529114%, 24.249268%)" offset="0.773438"/><stop stop-opacity="1" stop-color="rgb(97.413635%, 59.877014%, 24.281311%)" offset="0.78125"/><stop stop-opacity="1" stop-color="rgb(97.450256%, 60.223389%, 24.311829%)" offset="0.789062"/><stop stop-opacity="1" stop-color="rgb(97.488403%, 60.569763%, 24.343872%)" offset="0.796875"/><stop stop-opacity="1" stop-color="rgb(97.525024%, 60.917664%, 24.37439%)" offset="0.804688"/><stop stop-opacity="1" stop-color="rgb(97.563171%, 61.264038%, 24.404907%)" offset="0.8125"/><stop stop-opacity="1" stop-color="rgb(97.601318%, 61.611938%, 24.436951%)" offset="0.820312"/><stop stop-opacity="1" stop-color="rgb(97.637939%, 61.958313%, 24.467468%)" offset="0.828125"/><stop stop-opacity="1" stop-color="rgb(97.676086%, 62.304688%, 24.499512%)" offset="0.835938"/><stop stop-opacity="1" stop-color="rgb(97.712708%, 62.652588%, 24.530029%)" offset="0.84375"/><stop stop-opacity="1" stop-color="rgb(97.750854%, 62.998962%, 24.560547%)" offset="0.851562"/><stop stop-opacity="1" stop-color="rgb(97.787476%, 63.346863%, 24.59259%)" offset="0.859375"/><stop stop-opacity="1" stop-color="rgb(97.825623%, 63.693237%, 24.623108%)" offset="0.867188"/><stop stop-opacity="1" stop-color="rgb(97.86377%, 64.039612%, 24.653625%)" offset="0.875"/><stop stop-opacity="1" stop-color="rgb(97.900391%, 64.387512%, 24.685669%)" offset="0.882812"/><stop stop-opacity="1" stop-color="rgb(97.938538%, 64.733887%, 24.716187%)" offset="0.890625"/><stop stop-opacity="1" stop-color="rgb(97.975159%, 65.080261%, 24.74823%)" offset="0.898438"/><stop stop-opacity="1" stop-color="rgb(98.013306%, 65.428162%, 24.778748%)" offset="0.90625"/><stop stop-opacity="1" stop-color="rgb(98.049927%, 65.774536%, 24.809265%)" offset="0.914062"/><stop stop-opacity="1" stop-color="rgb(98.088074%, 66.122437%, 24.841309%)" offset="0.921875"/><stop stop-opacity="1" stop-color="rgb(98.126221%, 66.468811%, 24.871826%)" offset="0.929688"/><stop stop-opacity="1" stop-color="rgb(98.162842%, 66.815186%, 24.90387%)" offset="0.9375"/><stop stop-opacity="1" stop-color="rgb(98.200989%, 67.163086%, 24.934387%)" offset="0.945312"/><stop stop-opacity="1" stop-color="rgb(98.23761%, 67.50946%, 24.964905%)" offset="0.953125"/><stop stop-opacity="1" stop-color="rgb(98.275757%, 67.857361%, 24.996948%)" offset="0.960938"/><stop stop-opacity="1" stop-color="rgb(98.312378%, 68.203735%, 25.027466%)" offset="0.96875"/><stop stop-opacity="1" stop-color="rgb(98.350525%, 68.55011%, 25.059509%)" offset="0.976562"/><stop stop-opacity="1" stop-color="rgb(98.384094%, 68.861389%, 25.086975%)" offset="0.984375"/><stop stop-opacity="1" stop-color="rgb(98.399353%, 68.998718%, 25.099182%)" offset="1"/></linearGradient><clipPath id="200e3a1cd8"><path d="M 106.457031 3.859375 L 375 3.859375 L 375 126 L 106.457031 126 Z M 106.457031 3.859375 " clip-rule="nonzero"/></clipPath><clipPath id="2dd7735ce9"><path d="M 320.101562 3.859375 C 359.433594 3.859375 391.316406 35.742188 391.316406 75.074219 C 391.316406 114.40625 359.433594 146.289062 320.101562 146.289062 L 177.671875 146.289062 C 138.339844 146.289062 106.457031 114.40625 106.457031 75.074219 C 106.457031 35.742188 138.339844 3.859375 177.671875 3.859375 Z M 320.101562 3.859375 " clip-rule="nonzero"/></clipPath></defs><rect x="-37.5" width="450" fill="#ffffff" y="-12.6" height="151.199998" fill-opacity="1"/><rect x="-37.5" width="450" fill="#ffffff" y="-12.6" height="151.199998" fill-opacity="1"/><g clip-path="url(#4ab2ac6e56)"><g clip-path="url(#d3276af335)"><path fill="url(#a4090fc1c4)" d="M 0.738281 11.539062 L 0.738281 108.984375 L 102.046875 108.984375 L 102.046875 11.539062 Z M 0.738281 11.539062 " fill-rule="nonzero"/></g></g><path fill="#000000" d="M 142.355469 61.953125 C 140.167969 61.0625 138.128906 60.070312 136.246094 58.972656 C 134.363281 57.875 132.738281 56.558594 131.371094 55.015625 C 130 53.476562 128.941406 51.660156 128.1875 49.570312 C 127.433594 47.480469 127.058594 44.996094 127.058594 42.117188 C 127.058594 38.554688 127.671875 35.421875 128.90625 32.714844 C 130.136719 30.007812 131.867188 27.730469 134.089844 25.878906 C 136.316406 24.03125 139.003906 22.625 142.152344 21.667969 C 145.300781 20.707031 148.792969 20.226562 152.625 20.226562 C 155.773438 20.226562 158.992188 20.554688 162.277344 21.203125 C 165.5625 21.855469 169.5 22.96875 174.085938 24.542969 L 167.101562 37.082031 C 162.652344 34.957031 157.964844 33.894531 153.035156 33.894531 C 152.078125 33.894531 151.085938 34 150.058594 34.203125 C 149.03125 34.410156 148.105469 34.769531 147.285156 35.285156 C 146.464844 35.796875 145.78125 36.5 145.230469 37.390625 C 144.683594 38.28125 144.410156 39.445312 144.410156 40.886719 C 144.410156 42.050781 144.632812 43.007812 145.078125 43.761719 C 145.523438 44.515625 146.085938 45.167969 146.773438 45.714844 C 147.457031 46.261719 148.242188 46.726562 149.132812 47.101562 C 150.023438 47.480469 150.914062 47.839844 151.804688 48.179688 L 157.863281 50.546875 C 160.460938 51.574219 162.839844 52.652344 164.996094 53.78125 C 167.152344 54.914062 168.984375 56.285156 170.492188 57.894531 C 171.996094 59.503906 173.160156 61.472656 173.980469 63.804688 C 174.804688 66.132812 175.214844 69.042969 175.214844 72.539062 C 175.214844 76.03125 174.582031 79.21875 173.316406 82.097656 C 172.046875 84.972656 170.199219 87.421875 167.769531 89.445312 C 165.339844 91.464844 162.34375 93.042969 158.785156 94.171875 C 155.226562 95.304688 151.152344 95.867188 146.566406 95.867188 C 144.445312 95.867188 142.492188 95.800781 140.714844 95.664062 C 138.933594 95.527344 137.207031 95.285156 135.527344 94.941406 C 133.851562 94.601562 132.175781 94.191406 130.496094 93.710938 C 128.820312 93.230469 127.023438 92.613281 125.105469 91.859375 L 128.597656 77.472656 C 131.40625 78.226562 134.160156 78.894531 136.863281 79.476562 C 139.566406 80.058594 142.324219 80.347656 145.128906 80.347656 C 148.894531 80.347656 151.769531 79.851562 153.753906 78.859375 C 155.738281 77.867188 156.902344 75.964844 157.246094 73.15625 C 157.382812 71.714844 157.210938 70.515625 156.730469 69.558594 C 156.253906 68.597656 155.566406 67.792969 154.679688 67.144531 C 153.789062 66.492188 152.796875 65.960938 151.699219 65.550781 L 148.414062 64.316406 Z M 183.839844 41.089844 L 199.445312 41.089844 L 199.445312 69.042969 C 199.445312 71.441406 199.652344 73.445312 200.0625 75.058594 C 200.472656 76.667969 201.089844 77.933594 201.910156 78.859375 C 202.730469 79.785156 203.742188 80.433594 204.941406 80.8125 C 206.136719 81.1875 207.558594 81.378906 209.199219 81.378906 C 211.1875 81.378906 212.964844 81.273438 214.539062 81.070312 L 214.335938 79.21875 L 214.335938 41.089844 L 229.941406 41.089844 L 229.941406 91.859375 C 227.410156 92.75 224.378906 93.539062 220.855469 94.222656 C 217.328125 94.910156 213.71875 95.25 210.023438 95.25 C 206.53125 95.25 203.195312 94.976562 200.011719 94.429688 C 196.828125 93.882812 194.039062 92.714844 191.644531 90.933594 C 189.246094 89.152344 187.347656 86.566406 185.945312 83.175781 C 184.539062 79.785156 183.839844 75.210938 183.839844 69.457031 Z M 242.878906 53.835938 L 234.355469 53.835938 L 241.132812 41.089844 L 256.023438 41.089844 L 257.253906 46.847656 C 258.828125 45.066406 260.761719 43.609375 263.054688 42.476562 C 265.347656 41.347656 268 40.78125 271.011719 40.78125 C 278.0625 40.78125 283.097656 43.351562 286.109375 48.488281 C 287.820312 46.09375 289.839844 44.207031 292.164062 42.835938 C 294.492188 41.46875 297.402344 40.78125 300.894531 40.78125 C 307.054688 40.78125 311.554688 42.410156 314.394531 45.664062 C 317.238281 48.917969 318.65625 54.109375 318.65625 61.234375 L 318.65625 94.738281 L 303.050781 94.738281 L 303.050781 64.007812 C 303.050781 60.71875 302.519531 58.390625 301.457031 57.019531 C 300.398438 55.648438 298.566406 54.964844 295.964844 54.964844 C 294.871094 54.964844 293.859375 55.085938 292.9375 55.324219 C 292.011719 55.5625 291.222656 56.007812 290.574219 56.660156 C 289.921875 57.3125 289.410156 58.203125 289.035156 59.332031 C 288.65625 60.464844 288.46875 61.953125 288.46875 63.804688 L 288.46875 94.738281 L 272.863281 94.738281 L 272.863281 63.804688 C 272.863281 60.378906 272.261719 58.046875 271.066406 56.816406 C 269.867188 55.582031 268.207031 54.964844 266.085938 54.964844 C 265.058594 54.964844 264.101562 55.066406 263.210938 55.273438 C 262.320312 55.480469 261.515625 55.890625 260.796875 56.507812 C 260.078125 57.121094 259.511719 58.015625 259.101562 59.179688 C 258.691406 60.34375 258.488281 61.886719 258.488281 63.804688 L 258.488281 94.738281 L 242.878906 94.738281 Z M 349.664062 81.273438 L 373.179688 81.273438 L 373.179688 94.738281 L 329.746094 94.738281 L 329.746094 83.125 L 331.441406 81.222656 L 335.753906 76.394531 L 341.554688 69.917969 L 347.714844 63.082031 L 353.054688 57.125 L 356.546875 53.320312 L 354.902344 53.835938 L 342.992188 53.835938 L 342.992188 59.488281 L 330.15625 55.582031 L 330.15625 41.089844 L 372.5625 41.089844 L 372.5625 53.21875 Z M 349.664062 81.273438 " fill-opacity="1" fill-rule="nonzero"/><g clip-path="url(#200e3a1cd8)"><g clip-path="url(#2dd7735ce9)"><path fill="#ffffff" d="M 106.457031 3.859375 L 391.316406 3.859375 L 391.316406 146.289062 L 106.457031 146.289062 Z M 106.457031 3.859375 " fill-opacity="1" fill-rule="nonzero"/></g></g><g fill="#000000" fill-opacity="1"><g transform="translate(114.615128, 84.680517)"><g><path d="M 15.96875 -21.359375 L 15.96875 0 L 4.203125 0 L 4.203125 -54.40625 L 28.75 -54.40625 L 28.75 -44.21875 L 15.96875 -44.21875 L 15.96875 -31.1875 L 27.90625 -31.1875 L 27.90625 -21.359375 Z M 15.96875 -21.359375 "/></g></g></g><g fill="#000000" fill-opacity="1"><g transform="translate(146.058766, 84.680517)"><g><path d="M 24.46875 -8.90625 L 24.46875 -17.3125 L 35.65625 -17.3125 L 35.65625 -10.25 C 35.65625 -2.851562 32.175781 0.84375 25.21875 0.84375 L 14.625 0.84375 C 7.675781 0.84375 4.203125 -2.851562 4.203125 -10.25 L 4.203125 -44.140625 C 4.203125 -51.535156 7.675781 -55.234375 14.625 -55.234375 L 25.21875 -55.234375 C 32.175781 -55.234375 35.65625 -51.535156 35.65625 -44.140625 L 35.65625 -39.015625 L 24.46875 -39.015625 L 24.46875 -45.578125 C 24.46875 -46.023438 24.3125 -46.414062 24 -46.75 C 23.695312 -47.082031 23.320312 -47.25 22.875 -47.25 L 17.578125 -47.25 C 17.128906 -47.25 16.75 -47.082031 16.4375 -46.75 C 16.125 -46.414062 15.96875 -46.023438 15.96875 -45.578125 L 15.96875 -8.90625 C 15.96875 -8.457031 16.125 -8.066406 16.4375 -7.734375 C 16.75 -7.398438 17.128906 -7.234375 17.578125 -7.234375 L 22.875 -7.234375 C 23.320312 -7.234375 23.695312 -7.398438 24 -7.734375 C 24.3125 -8.066406 24.46875 -8.457031 24.46875 -8.90625 Z M 24.46875 -8.90625 "/></g></g></g><g fill="#000000" fill-opacity="1"><g transform="translate(184.564657, 84.680517)"><g/></g></g><g fill="#000000" fill-opacity="1"><g transform="translate(201.547616, 84.680517)"><g><path d="M 34.390625 -40.109375 L 23.203125 -40.109375 L 23.203125 -44.390625 C 23.203125 -44.835938 23.046875 -45.226562 22.734375 -45.5625 C 22.429688 -45.90625 22.054688 -46.078125 21.609375 -46.078125 L 16.984375 -46.078125 C 16.535156 -46.078125 16.15625 -45.90625 15.84375 -45.5625 C 15.539062 -45.226562 15.390625 -44.835938 15.390625 -44.390625 L 15.390625 -34.71875 C 15.390625 -34.269531 15.539062 -33.878906 15.84375 -33.546875 C 16.15625 -33.210938 16.535156 -33.046875 16.984375 -33.046875 L 24.546875 -33.046875 C 31.492188 -32.929688 34.96875 -29.226562 34.96875 -21.9375 L 34.96875 -10.25 C 34.96875 -2.851562 31.492188 0.84375 24.546875 0.84375 L 14.625 0.84375 C 7.675781 0.84375 4.203125 -2.851562 4.203125 -10.25 L 4.203125 -15.890625 L 15.390625 -15.890625 L 15.390625 -9.84375 C 15.390625 -9.394531 15.539062 -9 15.84375 -8.65625 C 16.15625 -8.320312 16.535156 -8.15625 16.984375 -8.15625 L 22.203125 -8.15625 C 22.648438 -8.15625 23.023438 -8.320312 23.328125 -8.65625 C 23.640625 -9 23.796875 -9.394531 23.796875 -9.84375 L 23.796875 -20.515625 C 23.796875 -20.960938 23.640625 -21.351562 23.328125 -21.6875 C 23.023438 -22.03125 22.648438 -22.203125 22.203125 -22.203125 L 14.625 -22.203125 C 7.675781 -22.203125 4.203125 -25.898438 4.203125 -33.296875 L 4.203125 -44.140625 C 4.203125 -51.535156 7.675781 -55.234375 14.625 -55.234375 L 23.96875 -55.234375 C 30.914062 -55.234375 34.390625 -51.535156 34.390625 -44.140625 Z M 34.390625 -40.109375 "/></g></g></g><g fill="#000000" fill-opacity="1"><g transform="translate(240.053507, 84.680517)"><g><path d="M 22.875 -41.03125 L 34.140625 -41.03125 L 34.140625 0 L 23.875 0 L 23.875 -2.109375 C 22.132812 -0.140625 19.5 0.84375 15.96875 0.84375 L 14.203125 0.84375 C 7.253906 0.84375 3.78125 -2.851562 3.78125 -10.25 L 3.78125 -41.03125 L 15.046875 -41.03125 L 15.046875 -8.90625 C 15.046875 -8.457031 15.195312 -8.066406 15.5 -7.734375 C 15.8125 -7.398438 16.191406 -7.234375 16.640625 -7.234375 L 21.265625 -7.234375 C 21.710938 -7.234375 22.09375 -7.398438 22.40625 -7.734375 C 22.71875 -8.066406 22.875 -8.457031 22.875 -8.90625 Z M 22.875 -41.03125 "/></g></g></g><g fill="#000000" fill-opacity="1"><g transform="translate(278.05493, 84.680517)"><g><path d="M 40.78125 -41.875 C 47.726562 -41.875 51.203125 -38.171875 51.203125 -30.765625 L 51.203125 0 L 39.9375 0 L 39.9375 -32.125 C 39.9375 -32.570312 39.78125 -32.960938 39.46875 -33.296875 C 39.164062 -33.628906 38.789062 -33.796875 38.34375 -33.796875 L 34.71875 -33.796875 C 34.269531 -33.796875 33.890625 -33.628906 33.578125 -33.296875 C 33.273438 -32.960938 33.125 -32.570312 33.125 -32.125 L 33.125 0 L 21.859375 0 L 21.859375 -32.125 C 21.859375 -32.570312 21.703125 -32.960938 21.390625 -33.296875 C 21.085938 -33.628906 20.710938 -33.796875 20.265625 -33.796875 L 16.640625 -33.796875 C 16.191406 -33.796875 15.8125 -33.628906 15.5 -33.296875 C 15.195312 -32.960938 15.046875 -32.570312 15.046875 -32.125 L 15.046875 0 L 3.78125 0 L 3.78125 -41.03125 L 14.046875 -41.03125 L 14.046875 -38.921875 C 15.773438 -40.890625 18.40625 -41.875 21.9375 -41.875 L 22.703125 -41.875 C 26.847656 -41.875 29.734375 -40.582031 31.359375 -38 C 33.097656 -40.582031 35.984375 -41.875 40.015625 -41.875 Z M 40.78125 -41.875 "/></g></g></g><g fill="#000000" fill-opacity="1"><g transform="translate(333.627808, 84.680517)"><g><path d="M 14.203125 -8.328125 L 30.359375 -8.328125 L 30.359375 0 L 2.609375 0 L 2.609375 -7.90625 L 18.5 -32.796875 L 2.609375 -32.796875 L 2.609375 -41.03125 L 30.359375 -41.03125 L 30.359375 -33.546875 Z M 14.203125 -8.328125 "/></g></g></g><g fill="#000000" fill-opacity="1"><g transform="translate(366.096863, 84.680517)"><g/></g></g></svg>